Coordinates
version=1
nRows=19
nColumns=63
inDegrees=yes

Units are S.I. units (second, meters, Newtons, ...)
If the header above contains a line with 'inDegrees', this indicates whether rotational values are in degrees (yes) or radians (no).

endheader
time	pelvis_tilt	pelvis_list	pelvis_rotation	pelvis_tx	pelvis_ty	pelvis_tz	hip_flexion_r	hip_adduction_r	hip_rotation_r	knee_angle_r	knee_angle_r_beta	ankle_angle_r	subtalar_angle_r	mtp_angle_r	hip_flexion_l	hip_adduction_l	hip_rotation_l	knee_angle_l	knee_angle_l_beta	ankle_angle_l	subtalar_angle_l	mtp_angle_l	L5_S1_Flex_Ext	L5_S1_Lat_Bending	L5_S1_axial_rotation	L4_L5_Flex_Ext	L4_L5_Lat_Bending	L4_L5_axial_rotation	L3_L4_Flex_Ext	L3_L4_Lat_Bending	L3_L4_axial_rotation	L2_L3_Flex_Ext	L2_L3_Lat_Bending	L2_L3_axial_rotation	L1_L2_Flex_Ext	L1_L2_Lat_Bending	L1_L2_axial_rotation	L1_T12_Flex_Ext	L1_T12_Lat_Bending	L1_T12_axial_rotation	Abs_r3	Abs_r2	Abs_r1	Abs_t1	Abs_t2	neck_flexion	neck_bending	neck_rotation	arm_flex_r	arm_add_r	arm_rot_r	elbow_flex_r	pro_sup_r	wrist_flex_r	wrist_dev_r	arm_flex_l	arm_add_l	arm_rot_l	elbow_flex_l	pro_sup_l	wrist_flex_l	wrist_dev_l
0.000000	-5.916003	-4.736941	451.853921	0.239066	0.995513	0.500789	4.274697	-5.405724	-8.892005	5.948759	0.103825	24.070820	14.655240	0.000000	2.913884	5.597046	-13.687804	1.156581	0.020186	19.188527	12.912520	0.000000	0.020338	5.960602	64.785117	0.037770	7.927601	68.834187	0.033414	14.492609	68.834187	0.023245	14.492609	56.686978	0.018886	12.154860	52.637908	0.011621	9.232973	48.588838	0.145274	67.427526	360.315387	0.000000	0.000000	21.983336	5.521056	-5.962677	4.079399	-27.642868	58.831039	14.248433	14.628521	-5.906934	-3.086272	-2.270993	-38.716952	114.128340	6.773788	46.456434	1.569214	7.884037
0.016949	-5.603568	-4.531270	451.052003	0.238992	0.995795	0.500950	4.625631	-5.178600	-8.726263	6.903202	0.120484	24.048235	15.312991	0.000000	2.674602	5.347005	-14.320285	1.120210	0.019551	19.674309	13.064338	0.000000	0.013517	5.479233	65.184960	0.025102	7.287380	69.259020	0.022207	13.322208	69.259020	0.015448	13.322208	57.036840	0.012552	11.173253	52.962780	0.007724	8.487333	48.888720	0.096549	61.982184	362.539190	0.000000	0.000000	22.280583	4.703946	-5.439503	3.385123	-28.321382	60.300214	13.320439	14.297543	-6.515964	-1.745747	0.837520	-36.750081	157.488519	8.198112	31.848051	1.155580	5.767715
0.033898	-5.380032	-4.368143	450.480045	0.238907	0.996003	0.500979	4.861549	-5.020242	-8.613846	7.630106	0.133170	23.996409	15.734960	0.000000	2.477253	5.173135	-14.769903	1.084376	0.018926	20.045329	13.172226	0.000000	0.008429	5.121716	65.473958	0.015654	6.811882	69.566081	0.013849	12.452939	69.566081	0.009634	12.452939	57.289713	0.007827	10.444202	53.197591	0.004817	7.933537	49.105469	0.060210	57.937871	364.146514	0.000000	0.000000	22.486172	4.107309	-5.019659	2.804896	-28.877629	60.972093	12.709203	14.106554	-7.005003	-0.835137	3.129207	-35.288304	189.181530	9.369100	20.937405	0.771927	4.219248
0.050847	-5.234389	-4.243105	450.117921	0.238806	0.996148	0.500904	4.994186	-4.922066	-8.556320	8.152016	0.142280	23.916508	15.946904	0.000000	2.319289	5.065613	-15.052141	1.050557	0.018336	20.311591	13.239322	0.000000	0.004901	4.872481	65.663473	0.009102	6.480400	69.767440	0.008052	11.846951	69.767440	0.005602	11.846951	57.455539	0.004551	9.935963	53.351572	0.002801	7.547473	49.247605	0.035009	55.118481	365.200537	0.000000	0.000000	22.611605	3.705719	-4.685054	2.342442	-29.312149	61.026870	12.367006	14.026858	-7.379887	-0.304301	4.697395	-34.267688	210.399378	10.301849	13.359642	0.420921	3.170009
0.067797	-5.155635	-4.151702	449.945507	0.238687	0.996239	0.500751	5.035277	-4.875485	-8.555247	8.491478	0.148204	23.809703	15.974576	0.000000	2.198161	5.014615	-15.182485	1.020236	0.017806	20.483100	13.268764	0.000000	0.002758	4.715962	65.764863	0.005122	6.272230	69.875167	0.004531	11.466391	69.875167	0.003152	11.466391	57.544255	0.002561	9.616791	53.433951	0.001576	7.305026	49.323647	0.019700	53.347910	365.764440	0.000000	0.000000	22.668382	3.473747	-4.417599	2.001486	-29.625483	60.644738	12.246132	14.029759	-7.646453	-0.103096	5.635415	-33.624299	222.334069	11.011454	8.749908	0.105227	2.551370
0.084746	-5.132762	-4.089480	449.942676	0.238543	0.996284	0.500547	4.996559	-4.871917	-8.612193	8.671037	0.151338	23.677159	15.843733	0.000000	2.111320	5.010318	-15.176418	0.994894	0.017364	20.569860	13.263690	0.000000	0.001825	4.636592	65.789489	0.003389	6.166667	69.901332	0.002998	11.273409	69.901332	0.002086	11.273409	57.565803	0.001695	9.454938	53.453960	0.001043	7.182081	49.342117	0.013035	52.450052	365.901400	0.000000	0.000000	22.668004	3.385969	-4.199204	1.785753	-29.818173	60.005892	12.298863	14.086562	-7.810536	-0.181381	6.036594	-33.294202	226.177607	11.513011	6.743349	-0.172488	2.294704
0.101695	-5.154767	-4.051985	450.089302	0.238372	0.996295	0.500317	4.889767	-4.902775	-8.728721	8.713239	0.152075	23.520045	15.580130	0.000000	2.056217	5.042900	-15.049425	0.976010	0.017035	20.581874	13.227237	0.000000	0.001928	4.618801	65.748709	0.003580	6.143006	69.858004	0.003167	11.230154	69.858004	0.002203	11.230154	57.530121	0.001790	9.418660	53.420826	0.001101	7.154523	49.311532	0.013769	52.248804	365.674597	0.000000	0.000000	22.621972	3.416956	-4.011779	1.698967	-29.890759	59.290524	12.477481	14.168568	-7.877973	-0.489015	5.994261	-33.213465	223.121998	11.821617	6.975112	-0.409559	2.331386
0.118644	-5.210643	-4.034762	450.365260	0.238169	0.996280	0.500088	4.726636	-4.959476	-8.906395	8.640629	0.150807	23.339530	15.209520	0.000000	2.030304	5.102536	-14.816991	0.965067	0.016844	20.529148	13.162544	0.000000	0.002891	4.647024	65.653885	0.005370	6.180541	69.757252	0.004750	11.298773	69.757252	0.003305	11.298773	57.447149	0.002685	9.476210	53.343781	0.001652	7.198240	49.240413	0.020653	52.568060	365.147210	0.000000	0.000000	22.541786	3.541283	-3.837236	1.744855	-29.843783	58.678829	12.734267	14.247083	-7.854600	-0.975854	5.601746	-33.318152	214.359246	11.952368	9.080343	-0.603320	2.592787
0.135593	-5.289386	-4.033357	450.750424	0.237929	0.996249	0.499887	4.518903	-5.033434	-9.146779	8.475754	0.147930	23.136780	14.757661	0.000000	2.031030	5.179404	-14.494599	0.963546	0.016817	20.421686	13.072747	0.000000	0.004542	4.705691	65.516374	0.008435	6.258569	69.611148	0.007462	11.441417	69.611148	0.005191	11.441417	57.326827	0.004218	9.595845	53.232054	0.002595	7.289115	49.137281	0.032442	53.231715	364.382419	0.000000	0.000000	22.438947	3.733522	-3.657485	1.927140	-29.677786	58.350999	13.021505	14.293410	-7.746251	-1.591758	4.952376	-33.544330	201.081358	11.920358	12.694187	-0.751104	3.010280
0.152542	-5.379989	-4.043315	451.224668	0.237650	0.996211	0.499741	4.278304	-5.116065	-9.451438	8.241158	0.143835	22.912963	14.250306	0.000000	2.055847	5.263681	-14.097733	0.972926	0.016981	20.269491	12.960986	0.000000	0.006704	4.779235	65.347538	0.012451	6.356383	69.431759	0.011015	11.620232	69.431759	0.007662	11.620232	57.179096	0.006226	9.745816	53.094874	0.003831	7.403035	49.010653	0.047889	54.063664	363.443401	0.000000	0.000000	22.324956	3.968246	-3.454436	2.249547	-29.393309	58.487229	13.291476	14.278853	-7.558764	-2.286584	4.139480	-33.828065	184.480338	11.740686	17.451792	-0.850248	3.515240
0.169492	-5.471448	-4.060183	451.767866	0.237325	0.996177	0.499674	4.016574	-5.198784	-9.821935	7.959387	0.138918	22.669248	13.713211	0.000000	2.102206	5.345544	-13.641879	0.994690	0.017361	20.082568	12.830397	0.000000	0.009204	4.852089	65.158735	0.017093	6.453279	69.231156	0.015122	11.797370	69.231156	0.010520	11.797370	57.013893	0.008547	9.894380	52.941472	0.005259	7.515886	48.869051	0.065746	54.887803	362.393337	0.000000	0.000000	22.211312	4.220030	-3.210000	2.715802	-28.990892	59.267711	13.496463	14.174716	-7.297975	-3.010190	3.256387	-34.105423	165.748191	11.428446	22.988304	-0.898084	4.039038
0.186441	-5.507839	-4.053525	452.353986	0.236866	0.996185	0.499740	3.726625	-5.220699	-10.212465	7.628358	0.133140	22.437665	13.156893	0.000000	2.141910	5.374464	-13.118871	1.034931	0.018063	19.896956	12.657205	0.000000	0.011312	4.823372	64.985709	0.021007	6.415084	69.047316	0.018584	11.727546	69.047316	0.012928	11.727546	56.862496	0.010504	9.835819	52.800889	0.006464	7.471403	48.739282	0.080799	54.562944	361.431020	0.000000	0.000000	22.178099	4.344120	-2.652837	3.402829	-28.413534	61.744410	13.301813	13.579987	-6.706340	-3.377500	2.683134	-34.216607	148.579493	11.186859	27.366003	-0.727673	4.196685
0.203390	-5.519679	-4.047159	452.960113	0.236369	0.996221	0.499980	3.454844	-5.226447	-10.752794	7.330278	0.127937	22.170203	12.691474	0.000000	2.207501	5.376770	-12.581657	1.091244	0.019046	19.691650	12.484952	0.000000	0.013527	4.761167	64.810853	0.025120	6.332352	68.861531	0.022223	11.576301	68.861531	0.015460	11.576301	56.709496	0.012561	9.708972	52.658818	0.007729	7.375048	48.608139	0.096620	53.859273	360.458519	0.000000	0.000000	22.186381	4.462731	-1.978036	4.338535	-27.708329	66.005244	12.870968	12.888833	-6.019327	-3.628967	2.301309	-34.209366	132.170637	10.723417	32.739213	-0.412262	4.246976
0.220339	-5.489235	-4.036736	453.563664	0.235842	0.996274	0.500453	3.215884	-5.204459	-11.445608	7.097540	0.123875	21.846645	12.323540	0.000000	2.299417	5.335235	-12.040807	1.170683	0.020432	19.487780	12.301526	0.000000	0.014934	4.650591	64.657784	0.027734	6.185287	68.698896	0.024535	11.307448	68.698896	0.017068	11.307448	56.575561	0.013868	9.483486	52.534450	0.008533	7.203766	48.493338	0.106672	52.608420	359.607198	0.000000	0.000000	22.230438	4.519393	-1.269528	5.460682	-26.904425	71.934482	12.218649	12.163401	-5.423094	-3.777244	2.235802	-33.864729	119.337774	10.086302	36.887796	-0.134033	4.088034
0.237288	-5.419728	-4.027790	454.133532	0.235304	0.996346	0.501175	3.033846	-5.163017	-12.259432	6.957060	0.121424	21.462354	12.060388	0.000000	2.422378	5.253834	-11.527876	1.274571	0.022245	19.297550	12.125531	0.000000	0.016399	4.500552	64.536375	0.030456	5.985734	68.569899	0.026943	10.942641	68.569899	0.018743	10.942641	56.469328	0.015229	9.177525	52.435805	0.009371	6.971354	48.402281	0.117140	50.911140	358.931957	0.000000	0.000000	22.304858	4.508996	-0.582352	6.697138	-26.002577	79.247937	11.362311	11.359740	-5.080714	-3.874124	2.434836	-33.222188	109.093585	9.301550	40.777371	-0.049437	3.742173
0.254237	-5.332714	-4.027745	454.668139	0.234759	0.996456	0.502102	2.915573	-5.125579	-13.175604	6.907029	0.120550	21.032055	11.915484	0.000000	2.579321	5.157231	-11.056626	1.401663	0.024464	19.101186	11.956450	0.000000	0.018158	4.337544	64.442069	0.033721	5.768934	68.469698	0.029831	10.546305	68.469698	0.020753	10.546305	56.386810	0.016861	8.845120	52.359181	0.010375	6.718856	48.331552	0.129699	49.067168	358.407454	0.000000	0.000000	22.391138	4.441080	-0.012552	7.966416	-24.994426	87.555061	10.334688	10.485415	-5.032121	-3.998654	2.851492	-32.328212	101.145091	8.370549	44.093011	-0.079387	3.311686
0.271186	-5.205549	-4.025953	455.132996	0.234204	0.996587	0.503267	2.874239	-5.068501	-14.130939	6.969504	0.121641	20.600757	11.884127	0.000000	2.757967	5.023975	-10.658262	1.550259	0.027057	18.921782	11.801597	0.000000	0.019140	4.132995	64.403905	0.035544	5.496884	68.429149	0.031445	10.048965	68.429149	0.021875	10.048965	56.353417	0.017773	8.428004	52.328173	0.010936	6.402010	48.302929	0.136713	46.753269	358.195199	0.000000	0.000000	22.482176	4.279296	0.491785	9.187111	-23.901600	96.355569	9.128651	9.484013	-5.237116	-4.175722	3.541809	-31.001233	97.165569	7.355446	45.924377	-0.191813	2.500665
0.288136	-5.053506	-4.021592	455.537669	0.233625	0.996762	0.504590	2.900100	-5.003054	-15.072348	7.121507	0.124294	20.192634	11.961797	0.000000	2.946840	4.871468	-10.338633	1.709724	0.029840	18.749312	11.677142	0.000000	0.019919	3.903749	64.408343	0.036991	5.191986	68.433864	0.032724	9.491575	68.433864	0.022765	9.491575	56.357300	0.018496	7.960524	52.331778	0.011381	6.046907	48.306257	0.142276	44.159986	358.219879	0.000000	0.000000	22.569745	4.047508	0.897191	10.361122	-22.745283	105.090772	7.882110	8.431654	-5.536690	-4.432494	4.469080	-29.354725	96.441415	6.252649	46.709845	-0.302500	1.455279
0.305085	-4.881592	-4.015962	455.901510	0.232990	0.996980	0.506003	2.980620	-4.927767	-15.957202	7.335258	0.128024	19.848573	12.098849	0.000000	3.141472	4.704191	-10.081427	1.879405	0.032802	18.592054	11.612310	0.000000	0.020388	3.654434	64.451751	0.037863	4.860398	68.479985	0.033496	8.885391	68.479985	0.023302	8.885391	56.395282	0.018933	7.452122	52.367047	0.011650	5.660719	48.338813	0.145632	41.339691	358.461302	0.000000	0.000000	22.643946	3.703956	1.178817	11.442176	-21.543050	113.229924	6.680997	7.314983	-5.729685	-4.786093	5.698976	-27.465407	98.552428	5.160586	45.935973	-0.278375	0.252755
